<svg id="visual" viewBox="0 0 900 600" width="900" height="600" xmlns="http://www.w3.org/2000/svg" xmlns:xlink="http://www.w3.org/1999/xlink" version="1.1"><rect x="0" y="0" width="900" height="600" fill="#00070B"></rect><path d="M0 299L21.5 299C43 299 86 299 128.8 299C171.7 299 214.3 299 257.2 299C300 299 343 299 385.8 299C428.7 299 471.3 299 514.2 299C557 299 600 299 642.8 299C685.7 299 728.3 299 771.2 299C814 299 857 299 878.5 299L900 299L900 601L878.5 601C857 601 814 601 771.2 601C728.3 601 685.7 601 642.8 601C600 601 557 601 514.2 601C471.3 601 428.7 601 385.8 601C343 601 300 601 257.2 601C214.3 601 171.7 601 128.8 601C86 601 43 601 21.5 601L0 601Z" fill="#000b1c" stroke-linecap="round" stroke-linejoin="miter"></path></svg>