<svg id="visual" viewBox="0 0 960 300" width="960" height="300" xmlns="http://www.w3.org/2000/svg" xmlns:xlink="http://www.w3.org/1999/xlink" version="1.1"><rect x="0" y="0" width="960" height="300" fill="#00070b"></rect><path d="M0 88L22.8 89.5C45.7 91 91.3 94 137 94.7C182.7 95.3 228.3 93.7 274 92.8C319.7 92 365.3 92 411.2 95.2C457 98.3 503 104.7 548.8 105.3C594.7 106 640.3 101 686 95.7C731.7 90.3 777.3 84.7 823 85.2C868.7 85.7 914.3 92.3 937.2 95.7L960 99L960 0L937.2 0C914.3 0 868.7 0 823 0C777.3 0 731.7 0 686 0C640.3 0 594.7 0 548.8 0C503 0 457 0 411.2 0C365.3 0 319.7 0 274 0C228.3 0 182.7 0 137 0C91.3 0 45.7 0 22.8 0L0 0Z" fill="#f7770f"></path><path d="M0 95L22.8 90.8C45.7 86.7 91.3 78.3 137 76.2C182.7 74 228.3 78 274 76.2C319.7 74.3 365.3 66.7 411.2 66.3C457 66 503 73 548.8 77.5C594.7 82 640.3 84 686 87.5C731.7 91 777.3 96 823 96.8C868.7 97.7 914.3 94.3 937.2 92.7L960 91L960 0L937.2 0C914.3 0 868.7 0 823 0C777.3 0 731.7 0 686 0C640.3 0 594.7 0 548.8 0C503 0 457 0 411.2 0C365.3 0 319.7 0 274 0C228.3 0 182.7 0 137 0C91.3 0 45.7 0 22.8 0L0 0Z" fill="#f98619"></path><path d="M0 51L22.8 50.3C45.7 49.7 91.3 48.3 137 52.7C182.7 57 228.3 67 274 72C319.7 77 365.3 77 411.2 71.7C457 66.3 503 55.7 548.8 50.2C594.7 44.7 640.3 44.3 686 49.8C731.7 55.3 777.3 66.7 823 69C868.7 71.3 914.3 64.7 937.2 61.3L960 58L960 0L937.2 0C914.3 0 868.7 0 823 0C777.3 0 731.7 0 686 0C640.3 0 594.7 0 548.8 0C503 0 457 0 411.2 0C365.3 0 319.7 0 274 0C228.3 0 182.7 0 137 0C91.3 0 45.7 0 22.8 0L0 0Z" fill="#fa9424"></path><path d="M0 31L22.8 31.2C45.7 31.3 91.3 31.7 137 32.3C182.7 33 228.3 34 274 37.7C319.7 41.3 365.3 47.7 411.2 47.3C457 47 503 40 548.8 36.2C594.7 32.3 640.3 31.7 686 32.7C731.7 33.7 777.3 36.3 823 37C868.7 37.7 914.3 36.3 937.2 35.7L960 35L960 0L937.2 0C914.3 0 868.7 0 823 0C777.3 0 731.7 0 686 0C640.3 0 594.7 0 548.8 0C503 0 457 0 411.2 0C365.3 0 319.7 0 274 0C228.3 0 182.7 0 137 0C91.3 0 45.7 0 22.8 0L0 0Z" fill="#fba230"></path><path d="M0 22L22.8 20.7C45.7 19.3 91.3 16.7 137 17.2C182.7 17.7 228.3 21.3 274 23.3C319.7 25.3 365.3 25.7 411.2 26.2C457 26.7 503 27.3 548.8 27.2C594.7 27 640.3 26 686 25C731.7 24 777.3 23 823 21.7C868.7 20.3 914.3 18.7 937.2 17.8L960 17L960 0L937.2 0C914.3 0 868.7 0 823 0C777.3 0 731.7 0 686 0C640.3 0 594.7 0 548.8 0C503 0 457 0 411.2 0C365.3 0 319.7 0 274 0C228.3 0 182.7 0 137 0C91.3 0 45.7 0 22.8 0L0 0Z" fill="#fcaf3c"></path></svg>