<svg id="visual" viewBox="0 0 900 300" width="900" height="300" xmlns="http://www.w3.org/2000/svg" xmlns:xlink="http://www.w3.org/1999/xlink" version="1.1"><rect x="0" y="0" width="900" height="300" fill="#00070B"></rect><path d="M343 0L447 0L447 43L450 43L450 86L349 86L349 129L360 129L360 171L421 171L421 214L341 214L341 257L345 257L345 300L0 300L0 257L0 257L0 214L0 214L0 171L0 171L0 129L0 129L0 86L0 86L0 43L0 43L0 0L0 0Z" fill="#00070b"></path><path d="M362 0L261 0L261 43L263 43L263 86L230 86L230 129L235 129L235 171L373 171L373 214L307 214L307 257L301 257L301 300L0 300L0 257L0 257L0 214L0 214L0 171L0 171L0 129L0 129L0 86L0 86L0 43L0 43L0 0L0 0Z" fill="#00070b"></path><path d="M214 0L202 0L202 43L207 43L207 86L217 86L217 129L102 129L102 171L178 171L178 214L169 214L169 257L110 257L110 300L0 300L0 257L0 257L0 214L0 214L0 171L0 171L0 129L0 129L0 86L0 86L0 43L0 43L0 0L0 0Z" fill="#00070b"></path></svg>