<svg id="visual" viewBox="0 0 960 300" width="960" height="300" xmlns="http://www.w3.org/2000/svg" xmlns:xlink="http://www.w3.org/1999/xlink" version="1.1"><rect x="0" y="0" width="960" height="300" fill="#00070b"></rect><path d="M0 231L22.8 235.5C45.7 240 91.3 249 137 243.3C182.7 237.7 228.3 217.3 274 215.8C319.7 214.3 365.3 231.7 411.2 238.5C457 245.3 503 241.7 548.8 235.8C594.7 230 640.3 222 686 213.7C731.7 205.3 777.3 196.7 823 196.2C868.7 195.7 914.3 203.3 937.2 207.2L960 211L960 301L937.2 301C914.3 301 868.7 301 823 301C777.3 301 731.7 301 686 301C640.3 301 594.7 301 548.8 301C503 301 457 301 411.2 301C365.3 301 319.7 301 274 301C228.3 301 182.7 301 137 301C91.3 301 45.7 301 22.8 301L0 301Z" fill="#FCAF3C" stroke-linecap="round" stroke-linejoin="miter"></path></svg>